<svg width="20" height="15" viewBox="0 0 20 15" fill="none" xmlns="http://www.w3.org/2000/svg">
    <path d="M0.184082 10.5567C0.634288 11.1266 1.1331 11.6563 1.67492 12.14C1.67325 12.0925 1.66658 12.0475 1.66658 12C1.66984 11.1542 1.92892 10.3292 2.40978 9.63347C2.89063 8.9377 3.57075 8.40369 4.36075 8.10165C4.50605 8.04668 4.63309 7.95219 4.72752 7.82884C4.82196 7.70549 4.88005 7.5582 4.89521 7.40359C4.91038 7.24899 4.88203 7.09322 4.81335 6.95387C4.74468 6.81452 4.63843 6.69715 4.50658 6.61499C4.1463 6.3924 3.8492 6.08102 3.64375 5.71069C3.43831 5.34036 3.33139 4.92348 3.33325 4.49999C3.33143 4.01449 3.47158 3.53905 3.73646 3.13217C4.00134 2.72529 4.37939 2.40472 4.8241 2.20991C5.2688 2.0151 5.76075 1.95454 6.23942 2.03569C6.7181 2.11684 7.1626 2.33616 7.51825 2.66665C8.0392 2.36764 8.61013 2.16575 9.20325 2.07082C8.87816 1.61664 8.46497 1.23255 7.98831 0.941434C7.51165 0.650314 6.98126 0.458122 6.42875 0.376309C5.87624 0.294496 5.31292 0.324736 4.77234 0.465228C4.23177 0.60572 3.72501 0.853587 3.28225 1.19406C2.83949 1.53454 2.4698 1.96066 2.1952 2.44702C1.9206 2.93339 1.74671 3.47006 1.68389 4.02505C1.62108 4.58004 1.67062 5.14199 1.82957 5.67743C1.98852 6.21287 2.25362 6.71083 2.60908 7.14165C1.40975 7.94454 0.546848 9.15972 0.184082 10.5567ZM19.8157 10.5567C19.4534 9.15911 18.5904 7.94328 17.3907 7.13999C17.745 6.70904 18.0091 6.21126 18.1672 5.67623C18.3252 5.1412 18.3741 4.57985 18.3109 4.02555C18.2477 3.47125 18.0737 2.93531 17.7992 2.44961C17.5248 1.9639 17.1554 1.53834 16.7132 1.19822C16.271 0.858096 15.7649 0.610362 15.225 0.469742C14.6851 0.329122 14.1225 0.298486 13.5705 0.379657C13.0186 0.460828 12.4886 0.652147 12.012 0.942242C11.5355 1.23234 11.1222 1.61528 10.7966 2.06832C11.3897 2.16321 11.9607 2.3651 12.4816 2.66415C12.7369 2.42933 13.0384 2.25034 13.3668 2.13864C13.6953 2.02693 14.0434 1.98496 14.3889 2.01541C14.7345 2.04586 15.0699 2.14806 15.3737 2.31547C15.6775 2.48289 15.9431 2.71184 16.1534 2.9877C16.3637 3.26356 16.5142 3.58026 16.5952 3.91756C16.6762 4.25487 16.686 4.60536 16.6238 4.94665C16.5617 5.28793 16.4291 5.61251 16.2344 5.89963C16.0397 6.18675 15.7873 6.43011 15.4932 6.61415C15.3614 6.69631 15.2551 6.81369 15.1865 6.95304C15.1178 7.09239 15.0895 7.24815 15.1046 7.40276C15.1198 7.55737 15.1779 7.70466 15.2723 7.82801C15.3667 7.95135 15.4938 8.04585 15.6391 8.10082C16.4292 8.40291 17.1094 8.93704 17.5903 9.63298C18.0712 10.3289 18.3302 11.1541 18.3332 12C18.3332 12.0475 18.3266 12.0925 18.3249 12.1392C18.8667 11.6558 19.3655 11.1263 19.8157 10.5567Z" fill="black"/>
    <path d="M15.7951 13.9033C15.7045 13.0481 15.4274 12.2232 14.9832 11.4868C14.539 10.7505 13.9385 10.1206 13.2242 9.64165C13.8369 8.898 14.1704 7.96353 14.1667 6.99999C14.1664 6.33239 14.0056 5.67466 13.6979 5.08218C13.3903 4.4897 12.9447 3.97982 12.3989 3.59548C11.853 3.21114 11.2228 2.96358 10.5613 2.87366C9.89978 2.78374 9.22634 2.85409 8.5977 3.07879C7.96905 3.30348 7.4036 3.67594 6.94895 4.1648C6.49431 4.65366 6.16379 5.24461 5.98523 5.88788C5.80666 6.53115 5.78528 7.20791 5.92288 7.86117C6.06048 8.51443 6.35304 9.12507 6.77591 9.64165C6.06164 10.1206 5.4612 10.7505 5.01699 11.4868C4.57278 12.2232 4.29562 13.0481 4.20508 13.9033C4.73408 14.1782 5.28216 14.4146 5.84508 14.6108C5.84341 14.5733 5.83341 14.5383 5.83341 14.5C5.8369 13.6543 6.09608 12.8294 6.5769 12.1337C7.05772 11.4379 7.73772 10.9039 8.52758 10.6017C8.67308 10.5468 8.80033 10.4523 8.89493 10.3289C8.98953 10.2054 9.04771 10.058 9.06288 9.90323C9.07805 9.74847 9.04962 9.59254 8.98079 9.45309C8.91196 9.31365 8.80549 9.19624 8.67341 9.11415C8.31302 8.89187 8.01583 8.58069 7.81036 8.21046C7.60489 7.84023 7.49804 7.4234 7.50008 6.99999C7.50008 6.33694 7.76347 5.70106 8.23231 5.23222C8.70115 4.76338 9.33704 4.49999 10.0001 4.49999C10.6631 4.49999 11.299 4.76338 11.7678 5.23222C12.2367 5.70106 12.5001 6.33694 12.5001 6.99999C12.5021 7.4234 12.3953 7.84023 12.1898 8.21046C11.9843 8.58069 11.6871 8.89187 11.3267 9.11415C11.1947 9.19624 11.0882 9.31365 11.0194 9.45309C10.9505 9.59254 10.9221 9.74847 10.9373 9.90323C10.9525 10.058 11.0106 10.2054 11.1052 10.3289C11.1998 10.4523 11.3271 10.5468 11.4726 10.6017C12.2624 10.9039 12.9424 11.4379 13.4233 12.1337C13.9041 12.8294 14.1633 13.6543 14.1667 14.5C14.1667 14.5383 14.1567 14.5733 14.1559 14.6108C14.7186 14.4146 15.2664 14.1781 15.7951 13.9033Z" fill="black"/>
</svg>
