<svg width="20" height="20" viewBox="0 0 20 20" fill="none" xmlns="http://www.w3.org/2000/svg">
    <path fill-rule="evenodd" clip-rule="evenodd" d="M5.55566 9.99999C5.55566 7.54539 7.54551 5.55554 10.0001 5.55554C12.4547 5.55554 14.4446 7.54539 14.4446 9.99999C14.4446 12.4545 12.4547 14.4444 10.0001 14.4444C7.54551 14.4444 5.55566 12.4545 5.55566 9.99999ZM10.0001 11.1111C9.38644 11.1111 8.889 10.6137 8.889 9.99999C8.889 9.38632 9.38644 8.88888 10.0001 8.88888C10.6138 8.88888 11.1112 9.38632 11.1112 9.99999C11.1112 10.6137 10.6138 11.1111 10.0001 11.1111Z" fill="black"/>
    <path fill-rule="evenodd" clip-rule="evenodd" d="M0 10C0 4.47716 4.47716 0 10 0C15.5229 0 20 4.47716 20 10C20 15.5229 15.5229 20 10 20C4.47716 20 0 15.5229 0 10ZM10 17.7778C5.70446 17.7778 2.22222 14.2956 2.22222 10C2.22222 5.70446 5.70446 2.22222 10 2.22222C14.2956 2.22222 17.7778 5.70446 17.7778 10C17.7778 14.2956 14.2956 17.7778 10 17.7778Z" fill="black"/>
</svg>
